<svg width="133" height="156" viewBox="0 0 133 156" fill="none" xmlns="http://www.w3.org/2000/svg">
<path d="M66.5 0V22.1667C29.8606 22.1667 0 52.0272 0 88.6667C0 125.306 29.8606 155.167 66.5 155.167C103.139 155.167 133 125.306 133 88.6667C133 74.1101 128.236 60.6565 120.257 49.6874L109.722 60.2223C115.085 68.3758 118.222 78.1376 118.222 88.6667C118.222 117.32 95.1529 140.389 66.5 140.389C37.8471 140.389 14.7778 117.32 14.7778 88.6667C14.7778 60.0137 37.8471 36.9444 66.5 36.9444V59.1111L103.444 29.5556L66.5 0Z" fill="white"/>
</svg>
