<svg width="27" height="26" viewBox="0 0 27 26" fill="none" xmlns="http://www.w3.org/2000/svg">
<path d="M11.3906 25.375C11.055 25.375 10.733 25.2367 10.4957 24.9906C10.2583 24.7444 10.125 24.4106 10.125 24.0625C10.125 23.7144 10.2583 23.3806 10.4957 23.1344C10.733 22.8883 11.055 22.75 11.3906 22.75C11.7263 22.75 12.0482 22.8883 12.2856 23.1344C12.5229 23.3806 12.6563 23.7144 12.6563 24.0625C12.6563 24.4106 12.5229 24.7444 12.2856 24.9906C12.0482 25.2367 11.7263 25.375 11.3906 25.375ZM19.8281 25.375C19.4925 25.375 19.1705 25.2367 18.9332 24.9906C18.6958 24.7444 18.5625 24.4106 18.5625 24.0625C18.5625 23.7144 18.6958 23.3806 18.9332 23.1344C19.1705 22.8883 19.4925 22.75 19.8281 22.75C20.1638 22.75 20.4857 22.8883 20.7231 23.1344C20.9604 23.3806 21.0938 23.7144 21.0938 24.0625C21.0938 24.4106 20.9604 24.7444 20.7231 24.9906C20.4857 25.2367 20.1638 25.375 19.8281 25.375ZM2.53125 3.5C2.30747 3.5 2.09286 3.40781 1.93463 3.24372C1.77639 3.07962 1.6875 2.85706 1.6875 2.625C1.6875 2.39294 1.77639 2.17038 1.93463 2.00628C2.09286 1.84219 2.30747 1.75 2.53125 1.75H6.75C6.94498 1.75012 7.13391 1.82027 7.28465 1.94853C7.4354 2.07678 7.53866 2.25522 7.57688 2.4535L8.45438 7H24.4688C24.5946 6.99996 24.7189 7.02913 24.8325 7.08535C24.9461 7.14158 25.0461 7.22346 25.1252 7.32497C25.2043 7.42648 25.2605 7.54507 25.2897 7.67203C25.3189 7.799 25.3204 7.93113 25.2939 8.05875L22.7627 20.3088C22.7222 20.5045 22.6181 20.6799 22.4679 20.8057C22.3178 20.9315 22.1305 21.0001 21.9375 21H10.125C9.93002 20.9999 9.74109 20.9297 9.59035 20.8015C9.4396 20.6732 9.33634 20.4948 9.29813 20.2965L6.05813 3.5H2.53125ZM10.8169 19.25H21.2558L23.4259 8.75H8.79188L10.8169 19.25Z" fill="white"/>
</svg>
