<svg width="32" height="35" viewBox="0 0 32 35" fill="none" xmlns="http://www.w3.org/2000/svg">
<path d="M4.24503 31.6363C4.17003 31.6363 4.09703 31.6254 4.02603 31.6047C3.81603 31.5393 3.63403 31.3854 3.52503 31.1836C3.42603 30.9971 3.35803 30.6938 3.44403 30.4669C3.46003 30.2323 3.44903 29.9945 3.43903 29.7567C3.43103 29.5745 3.42303 29.3934 3.42403 29.2113C3.42603 28.8785 3.41303 28.5447 3.39903 28.2109C3.39003 28.0058 3.38203 27.8007 3.37703 27.5956C3.36103 26.9618 3.35003 26.328 3.35003 25.6931C3.35103 24.8302 3.34303 21.4669 3.34303 21.4669L3.33503 20.0345C3.32803 19.1051 3.32203 18.1756 3.33003 17.2462L3.33603 16.7083C3.34203 16.2054 3.34903 15.7014 3.34803 15.1974C3.34603 14.772 3.32303 12.7942 3.32303 12.7942C3.32103 12.5574 3.40903 12.3327 3.57003 12.1614C3.56403 12.0043 3.64403 11.8123 3.77103 11.6738C3.94203 11.4873 4.13103 11.4305 4.36203 11.4022C5.09403 11.3171 5.81803 11.3051 6.42903 11.3051H6.60203C7.08303 11.3051 7.56303 11.2909 8.04403 11.2723C8.50503 11.2516 8.96703 11.2396 9.42703 11.2298H10.025L10.482 11.2167L10.633 11.2211L10.62 10.6778C10.605 10.1313 10.591 9.58361 10.592 9.03707L10.594 6.21271C10.591 5.60398 10.589 4.99525 10.611 4.38652C10.627 3.95343 10.908 3.59889 11.292 3.52471C11.397 3.39271 11.594 3.30434 11.797 3.30434C12.218 3.30652 12.638 3.31525 13.058 3.32398L13.474 3.32943C13.579 3.32943 13.683 3.32725 13.788 3.3218C14.262 3.29671 14.734 3.28252 15.207 3.27271C15.578 3.27271 15.892 3.56398 15.968 3.96652C16.011 4.06471 16.035 4.18907 16.033 4.31125C16.03 4.58725 16.017 4.86325 15.999 5.14034C15.954 5.85707 15.934 6.58252 15.936 7.36034L15.937 7.58289L16.069 7.58943C16.721 7.6167 17.373 7.64398 18.025 7.64398C18.417 7.64398 18.808 7.63307 19.199 7.60798C19.573 7.58289 19.948 7.57416 20.323 7.56543L20.953 7.54689C21.121 7.54143 21.287 7.53489 21.455 7.53489H21.878L22.133 7.5218C22.219 7.5218 22.292 7.53271 22.357 7.55671C22.508 7.61125 22.643 7.7138 22.759 7.86107C23.025 8.00289 23.2 8.30943 23.186 8.63561L23.163 9.17343C23.132 9.87161 23.102 10.5676 23.094 11.268C23.086 11.9716 23.088 12.6796 23.09 13.3843V13.4476C23.535 13.4302 23.98 13.4225 24.424 13.4149C24.729 13.4094 25.036 13.4051 25.34 13.3974C25.613 13.3887 25.886 13.3865 26.158 13.3865L26.762 13.3833C26.902 13.3778 26.997 13.3734 27.093 13.3734C27.179 13.3734 27.265 13.3767 27.352 13.3854C27.534 13.404 27.744 13.4509 27.925 13.6483L27.993 13.752C28.268 13.8796 28.47 14.2003 28.482 14.5636C28.506 15.1865 28.497 15.8083 28.487 16.4313L28.48 16.8818C28.471 17.6553 28.466 18.4309 28.469 19.2043L28.47 19.4607C28.471 20.0738 28.472 20.6847 28.5 21.2989C28.532 21.9982 28.551 22.6974 28.567 23.3978C28.588 24.1931 28.583 24.9883 28.578 25.7847C28.575 26.304 28.571 26.8222 28.575 27.3393L28.576 27.5989C28.575 27.7811 28.575 27.9611 28.582 28.1422C28.588 28.3156 28.599 28.488 28.61 28.6614L28.625 28.9069C28.635 29.0542 28.639 29.2014 28.643 29.3509L28.674 30.108C28.681 30.2934 28.643 30.4603 28.555 30.6447C28.444 30.8803 28.22 31.0309 27.943 31.056C27.83 31.1694 27.63 31.2447 27.432 31.2447C27.364 31.2447 27.296 31.236 27.229 31.2196C27.049 31.2 26.871 31.1934 26.694 31.1869L26.472 31.1782C26.157 31.1662 25.841 31.1618 25.525 31.1618L24.446 31.1683C23.527 31.1749 22.609 31.1814 21.691 31.2076C20.218 31.2523 18.744 31.2611 17.269 31.2633C15.838 31.2633 14.411 31.2883 12.98 31.3232C12.445 31.3374 11.912 31.3385 11.379 31.3385H10.802C10.066 31.3385 9.33103 31.3396 8.59603 31.3636L8.21503 31.3778C7.75803 31.3953 7.30103 31.4127 6.84403 31.4127L6.21303 31.3985C6.05003 31.392 5.88703 31.3854 5.72403 31.3854L5.59603 31.3865C5.30703 31.3963 5.01903 31.4007 4.73003 31.404C4.74403 31.4422 4.71603 31.4803 4.67003 31.5087C4.54303 31.5938 4.39603 31.6363 4.24503 31.6363ZM5.32003 29.6214C5.96303 29.6389 6.60503 29.6574 7.24903 29.6574C7.24903 29.6574 8.46103 29.6465 8.92903 29.6411C9.52103 29.6323 10.113 29.6247 10.705 29.6247L11.031 29.6214C11.028 29.4709 11.019 29.3214 11.009 29.1731C11 29.0356 10.998 28.8982 10.996 28.7607L10.993 28.6167L10.778 28.6091C10.534 28.5982 10.292 28.5905 10.048 28.5905H9.91503C9.43003 28.5982 8.94603 28.6047 8.46403 28.6047C8.46403 28.6047 6.78303 28.6091 6.64903 28.6123C6.24703 28.6298 5.84503 28.6734 5.44203 28.716L5.00303 28.7618C5.00303 28.7618 5.01003 29.1109 5.01703 29.2625L5.03303 29.6127L5.32003 29.6214ZM12.421 23.9967C12.435 24.4025 12.454 24.8073 12.474 25.212C12.492 25.5796 12.51 25.9473 12.524 26.3171C12.545 26.8985 12.554 27.4789 12.557 28.0625L12.558 28.2043C12.561 28.4869 12.564 28.7683 12.578 29.052C12.585 29.2363 12.592 29.4163 12.604 29.6007C13.15 29.5953 13.778 29.5833 14.41 29.5669L14.394 29.3825C14.356 28.9036 14.361 28.4956 14.365 28.0876L14.371 22.9407C14.13 22.944 13.89 22.9658 13.65 22.9898L12.401 23.1087C12.403 23.1087 12.413 23.7731 12.421 23.9967ZM16.048 28.6178C16.052 28.9254 16.06 29.2331 16.088 29.5396C17.198 29.5222 18.308 29.508 19.418 29.5036C20.166 29.5003 20.915 29.4851 21.665 29.4633L21.769 29.4611C21.753 29.2953 21.744 29.1862 21.739 29.0771C21.739 29.0771 21.712 28.5502 21.706 28.404L21.222 28.4247C20.844 28.4433 20.465 28.4476 20.087 28.452C20.087 28.452 18.964 28.4694 18.724 28.4716C18.336 28.4749 17.948 28.4793 17.561 28.5C17.37 28.512 17.18 28.5294 16.989 28.548L16.622 28.5818C16.46 28.596 16.297 28.6036 16.134 28.6123L16.048 28.6178ZM23.314 27.3098C23.319 27.5956 23.323 27.8803 23.333 28.1662L23.349 28.9047C23.355 29.0913 23.37 29.2745 23.387 29.46L23.683 29.4305L23.947 29.4262C24.679 29.4142 25.41 29.3891 26.143 29.364L27.101 29.3214C27.101 29.3214 27.091 28.968 27.085 28.836C27.054 28.3276 27.049 27.816 27.054 27.3043L27.059 27.0447L26.802 27.0502L26.498 27.036C26.412 27.0294 26.325 27.0218 26.238 27.0218C26.045 27.024 25.852 27.0316 25.659 27.0393C25.327 27.0513 24.996 27.0654 24.665 27.0807C24.214 27.1014 23.763 27.1233 23.311 27.132L23.314 27.3098ZM4.96403 26.9967C5.23403 26.9814 5.50403 26.9705 5.77403 26.9585C6.07603 26.9454 6.37903 26.9334 6.68203 26.9149C7.21703 26.8822 7.75303 26.8811 8.29003 26.88H10.008C10.205 26.8811 10.402 26.8876 10.599 26.8942L10.924 26.904L10.95 26.9258C10.949 26.748 10.937 26.2036 10.937 26.2036L10.66 26.1927C10.471 26.1829 10.281 26.1807 10.092 26.1796L7.73203 26.1567C6.81803 26.1567 5.88303 26.1905 4.95203 26.2593C4.95403 26.5047 4.95903 26.7513 4.96403 26.9967ZM16.018 26.9018L16.265 26.8963C16.708 26.8865 17.151 26.8789 17.594 26.8516C17.977 26.8287 18.36 26.8167 18.742 26.8047L19.892 26.7654C20.343 26.7502 20.793 26.736 21.242 26.6978L21.654 26.6618L21.634 25.956L20.764 25.9418L20.235 25.9593C19.807 25.9767 19.377 25.9931 18.948 26.0051L17.697 26.0476C17.135 26.0683 16.572 26.0891 16.009 26.1L16.018 26.9018ZM23.576 25.4094C23.843 25.4149 24.112 25.4203 24.381 25.4203C24.663 25.4182 24.947 25.4105 25.229 25.4029L25.652 25.392C26.13 25.3822 26.608 25.3603 27.084 25.3374C27.085 24.8007 27.085 24.1582 27.075 23.5178C27.062 22.7891 27.032 22.0614 26.998 21.3349C26.968 20.6334 26.959 19.9309 26.952 19.2305L26.936 16.8862C26.93 16.3113 26.907 15.7363 26.881 15.1614C26.544 15.1451 26.207 15.1396 25.868 15.1396L25.342 15.144C25.012 15.1505 24.683 15.1767 24.354 15.2018L23.103 15.2913L23.129 17.9116C23.145 18.9622 23.155 20.0127 23.165 21.0633L23.18 22.4585C23.18 22.4585 23.209 24.0065 23.212 24.3294C23.213 24.6883 23.217 25.0451 23.23 25.404L23.576 25.4094ZM4.94803 13.8633C4.94203 14.3236 4.93603 14.7829 4.93503 15.2433C4.93303 15.6371 4.93803 16.0298 4.94303 16.4225L4.95103 17.3345C4.95303 17.7207 4.94803 19.4793 4.94803 19.4793C4.94803 20.0433 4.94303 20.6083 4.93803 21.1723C4.93103 21.9993 4.92403 22.8262 4.93203 23.6531L4.93603 24.5269C5.36503 24.5127 5.79503 24.5127 6.22403 24.5127H6.38803C6.97203 24.5127 7.55603 24.5094 8.14003 24.4876C8.50003 24.4734 8.86003 24.4702 9.22003 24.4691C9.47103 24.4669 10.886 24.4429 10.886 24.4429L10.878 24.2738C10.858 23.8505 10.839 23.4283 10.829 23.0051C10.815 22.3963 10.808 21.7876 10.801 21.1778L10.797 20.8723C10.792 20.4338 10.776 19.9953 10.76 19.5567L10.736 18.8683C10.718 18.2498 10.709 17.6291 10.703 17.0073C10.698 16.5458 10.699 16.0822 10.7 15.6207C10.702 14.8233 10.704 14.028 10.672 13.2305L10.669 13.0745C10.655 13.0745 10.228 13.0527 10.055 13.0527H9.37803C9.12503 13.0451 8.87203 13.0396 8.61903 13.0396C8.41403 13.0396 8.20903 13.0429 8.00403 13.0527C7.68803 13.068 7.37403 13.0702 7.05903 13.0713L6.45303 13.0778C6.01403 13.0876 5.53703 13.1236 4.95703 13.188L4.94803 13.8633ZM16.145 24.4189C16.44 24.4276 16.736 24.4353 17.031 24.4353L17.32 24.4331C17.86 24.4211 18.402 24.408 18.941 24.3862C19.212 24.3742 20.85 24.2902 20.85 24.2902C21.01 24.2814 21.169 24.2727 21.329 24.2727L21.594 24.2683L21.585 22.2654C21.58 21.2869 21.57 20.3083 21.561 19.3298L21.536 16.6462C21.525 15.5956 21.515 14.5429 21.515 13.4934L21.512 12.3131C21.509 11.316 21.506 10.3189 21.523 9.32289L21.368 9.32616L20.972 9.3218L19.888 9.32725L19.564 9.34034C19.428 9.34689 19.293 9.35343 19.157 9.35452L17.589 9.35234C17.352 9.35343 17.114 9.35998 16.876 9.36543C16.616 9.37198 16.356 9.37852 16.096 9.37852L15.948 9.37743L15.947 10.2502C15.947 10.704 15.947 11.1567 15.938 11.6105C15.924 12.3273 15.919 13.044 15.926 13.7585L15.928 14.0007C15.929 14.2483 15.931 14.496 15.942 14.7414C15.956 15.0622 15.969 15.3785 15.97 15.6982C15.971 16.2993 15.965 16.9003 15.958 17.5025L15.956 17.7513C15.947 18.5083 15.938 19.2305 15.958 19.9527C15.979 20.724 16.001 21.4843 16.006 22.2458C16.011 22.86 16.01 23.472 16.009 24.0851V24.4145L16.145 24.4189ZM12.195 5.54289C12.156 6.29125 12.154 7.0418 12.156 7.79016V8.36071C12.155 8.86361 12.154 9.36761 12.171 9.87052C12.184 10.2578 12.191 10.6429 12.199 11.0302C12.205 11.3814 12.212 11.7316 12.223 12.0818L12.247 12.7069C12.265 13.1487 12.283 13.5905 12.285 14.0334L12.292 15.9611L12.285 16.7018C12.28 17.0869 12.275 17.472 12.283 17.856C12.292 18.3054 12.308 18.7549 12.325 19.2043L12.344 19.7203C12.36 20.2473 12.366 20.7731 12.372 21.3C12.769 21.2673 13.165 21.2411 13.562 21.2258L13.72 21.2182C13.938 21.2073 14.155 21.1974 14.372 21.18C14.368 20.7633 14.361 20.3465 14.355 19.9298C14.34 18.9873 14.325 18.0436 14.341 17.1011L14.347 16.7902C14.359 16.1978 14.37 15.6065 14.359 15.0142C14.353 14.6094 14.355 14.2058 14.357 13.8V6.62507C14.357 6.19852 14.363 5.77198 14.37 5.34543L14.373 5.01816L13.777 5.04761C13.277 5.06507 12.776 5.07161 12.275 5.07925L12.218 5.08034L12.195 5.54289ZM24.95 21.744C24.738 21.744 24.53 21.6513 24.381 21.4876C24.209 21.3022 24.172 21.0938 24.145 20.8789C24.137 20.8091 24.14 20.7393 24.144 20.6705C24.144 20.6705 24.139 19.9113 24.14 19.7814C24.142 19.6331 24.144 19.4858 24.14 19.3374C24.118 18.5673 24.097 17.7982 24.099 17.0291C24.099 16.5502 24.469 16.1465 24.907 16.1465C25.12 16.1465 25.33 16.2436 25.484 16.4127C25.638 16.5818 25.719 16.8011 25.717 17.0302C25.715 17.2614 25.69 18.3131 25.69 18.3131C25.688 18.5433 25.692 18.7745 25.696 19.0047L25.73 20.3662C25.733 20.5276 25.736 20.6902 25.755 20.8483C25.784 21.0785 25.658 21.3349 25.521 21.4865C25.37 21.6502 25.163 21.744 24.95 21.744ZM7.72003 21.3829C7.29503 21.3829 6.94403 21.0011 6.93803 20.532C6.93203 20.1491 6.93803 19.7651 6.94503 19.3833L6.95203 18.9163C6.95603 18.6927 6.96003 18.468 6.95303 18.2443C6.94203 17.9269 6.89003 16.8883 6.89003 16.8883C6.88003 16.6702 6.95603 16.4574 7.10403 16.2883C7.26303 16.1062 7.48003 16.0014 7.70003 16.0014C8.13703 16.0014 8.49203 16.3865 8.50903 16.8785C8.53503 17.5865 8.52403 18.2945 8.51203 19.0014C8.50403 19.5109 8.49603 20.0203 8.50203 20.5309C8.50503 20.7513 8.42503 20.9618 8.27803 21.1254C8.13003 21.2891 7.92603 21.3829 7.72003 21.3829ZM18.902 17.736C18.689 17.736 18.471 17.6313 18.318 17.4534C18.175 17.2887 18.102 17.0825 18.114 16.8709C18.127 16.6113 18.13 16.3505 18.133 16.092L18.139 15.7342C18.142 15.444 18.151 15.156 18.159 14.8669L18.169 14.5254C18.179 14.1251 18.176 13.7225 18.173 13.3222C18.17 12.8913 18.166 12.4593 18.18 12.0283C18.195 11.5363 18.549 11.1523 18.988 11.1523C19.207 11.1523 19.423 11.2549 19.58 11.436C19.728 11.6051 19.804 11.8189 19.794 12.0371L19.774 12.504C19.758 12.8214 19.743 13.1378 19.743 13.4563C19.741 13.8273 19.738 14.1971 19.727 14.568L19.722 14.7502C19.713 15.0905 19.704 15.4331 19.702 15.7745C19.702 15.9273 19.699 16.08 19.695 16.2338C19.689 16.4465 19.684 16.6603 19.689 16.8731C19.696 17.0902 19.619 17.3007 19.474 17.4654C19.322 17.6378 19.114 17.736 18.902 17.736Z" fill="white"/>
</svg>
