<svg width="15" height="15" viewBox="0 0 15 15" fill="none" xmlns="http://www.w3.org/2000/svg">
<mask id="mask0_579_658" style="mask-type:luminance" maskUnits="userSpaceOnUse" x="0" y="0" width="15" height="15">
<path d="M15 0H0V15H15V0Z" fill="white"/>
</mask>
<g mask="url(#mask0_579_658)">
<path fill-rule="evenodd" clip-rule="evenodd" d="M6.66313 4.91383C6.50888 5.02968 6.40625 5.1958 6.40625 5.46875C6.40625 5.81393 6.12643 6.09375 5.78125 6.09375C5.43607 6.09375 5.15625 5.81393 5.15625 5.46875C5.15625 4.8042 5.44261 4.26719 5.91253 3.9143C6.36169 3.57698 6.93544 3.4375 7.5 3.4375C8.17369 3.4375 8.74188 3.64011 9.15225 4.02812C9.55944 4.41313 9.75288 4.92572 9.78319 5.43781C9.84269 6.44013 9.29 7.54294 8.27881 8.12075C8.18688 8.17331 8.13 8.21638 8.09556 8.24738C8.17394 8.49288 8.09431 8.77156 7.87713 8.93588C7.60188 9.14419 7.20994 9.08988 7.00162 8.81463L7.001 8.81381L7.00031 8.81294C6.85037 8.61125 6.79063 8.34688 6.82106 8.09906C6.87338 7.67313 7.17044 7.31444 7.65869 7.0355C8.25981 6.69194 8.56656 6.03694 8.53544 5.51181C8.5205 5.26016 8.43112 5.0666 8.29344 4.93639C8.15887 4.80918 7.92006 4.6875 7.5 4.6875C7.12381 4.6875 6.83819 4.78239 6.66313 4.91383Z" fill="#FEFEFE"/>
<path d="M7.5 11.5625C8.01775 11.5625 8.4375 11.1428 8.4375 10.625C8.4375 10.1072 8.01775 9.6875 7.5 9.6875C6.98225 9.6875 6.5625 10.1072 6.5625 10.625C6.5625 11.1428 6.98225 11.5625 7.5 11.5625Z" fill="#FEFEFE"/>
<path fill-rule="evenodd" clip-rule="evenodd" d="M0.625 7.5C0.625 3.70304 3.70304 0.625 7.5 0.625C11.2969 0.625 14.375 3.70304 14.375 7.5C14.375 11.2969 11.2969 14.375 7.5 14.375C3.70304 14.375 0.625 11.2969 0.625 7.5ZM7.5 1.875C4.3934 1.875 1.875 4.3934 1.875 7.5C1.875 10.6066 4.3934 13.125 7.5 13.125C10.6066 13.125 13.125 10.6066 13.125 7.5C13.125 4.3934 10.6066 1.875 7.5 1.875Z" fill="#FEFEFE"/>
</g>
</svg>
