<svg width="28" height="28" viewBox="0 0 28 28" fill="none" xmlns="http://www.w3.org/2000/svg">
<circle cx="14" cy="14" r="3.90132" stroke="white" stroke-width="1.5"/>
<path d="M24.4334 15.659C23.3413 16.8289 21.8117 18.259 20.0027 19.3927C18.1913 20.5279 16.1435 21.3387 14 21.3387C11.8565 21.3387 9.80875 20.5279 7.99732 19.3927C6.18833 18.259 4.6587 16.8289 3.56659 15.659C2.67718 14.7064 2.67718 13.2934 3.56659 12.3407C4.6587 11.1709 6.18833 9.74075 7.99732 8.60708C9.80875 7.47188 11.8565 6.66113 14 6.66113C16.1435 6.66113 18.1913 7.47188 20.0027 8.60708C21.8117 9.74075 23.3413 11.1709 24.4334 12.3407C25.3228 13.2934 25.3228 14.7064 24.4334 15.659Z" stroke="white" stroke-width="1.5"/>
</svg>
