<svg width="31" height="31" viewBox="0 0 31 31" fill="none" xmlns="http://www.w3.org/2000/svg">
<path d="M15.5 2.58334C12.0743 2.58334 8.78889 3.9442 6.36655 6.36655C3.9442 8.78889 2.58334 12.0743 2.58334 15.5C2.58334 18.9257 3.9442 22.2111 6.36655 24.6335C8.78889 27.0558 12.0743 28.4167 15.5 28.4167C18.9257 28.4167 22.2111 27.0558 24.6335 24.6335C27.0558 22.2111 28.4167 18.9257 28.4167 15.5C28.4167 12.0743 27.0558 8.78889 24.6335 6.36655C22.2111 3.9442 18.9257 2.58334 15.5 2.58334Z" fill="#29B6F6"/>
<path d="M21.9261 9.68749L19.5068 22.0397C19.5068 22.0397 19.4028 22.6042 18.7027 22.6042C18.3307 22.6042 18.1389 22.4272 18.1389 22.4272L12.8986 18.0788L10.3346 16.7865L7.04411 15.9114C7.04411 15.9114 6.45834 15.7422 6.45834 15.2578C6.45834 14.8542 7.06091 14.6617 7.06091 14.6617L20.8275 9.19278C20.8275 9.19278 21.2479 9.04101 21.5547 9.04166C21.7433 9.04166 21.9583 9.12239 21.9583 9.36458C21.9583 9.52603 21.9261 9.68749 21.9261 9.68749Z" fill="white"/>
<path d="M14.8542 19.7011L12.6415 21.8802C12.6415 21.8802 12.5453 21.9545 12.4168 21.9577C12.3722 21.959 12.3244 21.9519 12.2754 21.9299L12.8979 18.0775L14.8542 19.7011Z" fill="#B0BEC5"/>
<path d="M19.3085 11.7516C19.1993 11.6095 18.9978 11.5837 18.8558 11.6915L10.3333 16.7917C10.3333 16.7917 11.6935 20.5969 11.9008 21.2557C12.1087 21.9151 12.2754 21.9306 12.2754 21.9306L12.8979 18.0782L19.2478 12.2037C19.3899 12.0958 19.4163 11.8937 19.3085 11.7516Z" fill="#CFD8DC"/>
</svg>
