<svg width="28" height="28" viewBox="0 0 28 28" fill="none" xmlns="http://www.w3.org/2000/svg">
<path fill-rule="evenodd" clip-rule="evenodd" d="M5.21463 5.21459C5.55633 4.87289 6.11035 4.87289 6.45206 5.21459L22.7854 21.5479C23.1271 21.8896 23.1271 22.4437 22.7854 22.7854C22.4437 23.1271 21.8897 23.1271 21.548 22.7854L5.21463 6.45203C4.87292 6.11032 4.87292 5.5563 5.21463 5.21459Z" fill="#0A0A0A"/>
<path d="M4.43387 4.39087L23.5658 23.5228" stroke="#0A0A0A" stroke-width="1.5" stroke-linecap="round"/>
<circle cx="14" cy="14" r="3.90132" stroke="#0A0A0A" stroke-width="1.5"/>
<path d="M24.4334 15.6592C23.3413 16.829 21.8117 18.2592 20.0027 19.3928C18.1913 20.528 16.1435 21.3388 14 21.3388C11.8565 21.3388 9.80875 20.528 7.99732 19.3928C6.18833 18.2592 4.6587 16.829 3.56659 15.6592C2.67718 14.7065 2.67718 13.2936 3.56659 12.3409C4.6587 11.171 6.18833 9.74087 7.99732 8.6072C9.80875 7.472 11.8565 6.66125 14 6.66125C16.1435 6.66125 18.1913 7.472 20.0027 8.6072C21.8117 9.74087 23.3413 11.171 24.4334 12.3409C25.3228 13.2936 25.3228 14.7065 24.4334 15.6592Z" stroke="#0A0A0A" stroke-width="1.5"/>
</svg>
